<?xml version="1.0" standalone="no"?>
<!DOCTYPE svg PUBLIC "-//W3C//DTD SVG 20010904//EN"
 "http://www.w3.org/TR/2001/REC-SVG-20010904/DTD/svg10.dtd">
<svg version="1.0" xmlns="http://www.w3.org/2000/svg"
 width="413.000000pt" height="413.000000pt" viewBox="0 0 413.000000 413.000000"
 preserveAspectRatio="xMidYMid meet">
<metadata>
Created by potrace 1.14, written by Peter Selinger 2001-2017
</metadata>
<g transform="translate(0.000000,413.000000) scale(0.100000,-0.100000)"
fill="#000000" stroke="none">
<path d="M1830 4119 c-268 -31 -569 -130 -791 -262 -374 -220 -653 -522 -834
-900 -442 -925 -141 -2029 709 -2598 349 -235 732 -351 1151 -351 496 0 949
166 1337 491 280 235 498 558 619 919 224 663 87 1409 -359 1955 -88 107 -285
293 -390 367 -303 214 -628 340 -984 379 -112 13 -348 12 -458 0z"/>
</g>
</svg>
